<svg width="16" height="18" viewBox="0 0 16 18" fill="none" xmlns="http://www.w3.org/2000/svg">
<path d="M14 8.5V4L11.89 5.06C11.96 5.36 12 5.67 12 6C12 8.21 10.21 10 8 10C5.79 10 4 8.21 4 6C4 5.67 4.04 5.36 4.11 5.06L1 3.5L8 0L15 3.5V8.5H14ZM8 7L6 6C6 7.1 6.9 8 8 8C9.1 8 10 7.1 10 6L8 7ZM10.75 3.42L8.16 2.1L5.47 3.47L8.07 4.79L10.75 3.42ZM8 11C10.67 11 16 12.33 16 15V18H0V15C0 12.33 5.33 11 8 11ZM8 12.9C5 12.9 1.9 14.36 1.9 15V16.1H14.1V15C14.1 14.36 10.97 12.9 8 12.9Z" fill="#222222"/>
</svg>
