<svg width="27" height="28" viewBox="0 0 27 28" fill="none" xmlns="http://www.w3.org/2000/svg">
<path fill-rule="evenodd" clip-rule="evenodd" d="M7.80968 4.08615C9.26385 2.63198 11.2361 1.81503 13.2926 1.81503C15.3492 1.81503 17.3214 2.63198 18.7756 4.08615C20.2298 5.54032 21.0467 7.5126 21.0467 9.56911C21.0467 13.2829 21.841 15.5892 22.5731 16.9312C22.9406 17.605 23.2985 18.0471 23.5471 18.3095C23.6717 18.441 23.7696 18.5282 23.8285 18.5773C23.858 18.6019 23.8778 18.617 23.8863 18.6233C23.8877 18.6243 23.8887 18.6251 23.8895 18.6257C24.2866 18.8984 24.4623 19.3974 24.3224 19.8596C24.1809 20.3268 23.7503 20.6464 23.2622 20.6464H3.32311C2.83498 20.6464 2.40437 20.3268 2.26292 19.8596C2.12297 19.3974 2.29869 18.8984 2.6958 18.6257C2.69657 18.6251 2.69763 18.6243 2.69896 18.6233C2.70749 18.617 2.72727 18.6019 2.75676 18.5773C2.81571 18.5282 2.91361 18.441 3.0382 18.3095C3.28681 18.0471 3.6447 17.605 4.01223 16.9312C4.74425 15.5892 5.53856 13.2829 5.53856 9.56911C5.53856 7.5126 6.35551 5.54032 7.80968 4.08615ZM2.70699 18.6181C2.70708 18.618 2.70717 18.618 2.70726 18.6179C2.70725 18.6179 2.70725 18.6179 2.70724 18.6179L2.70699 18.6181ZM5.70397 18.4309H20.8813C20.797 18.2928 20.7124 18.1466 20.6281 17.9921C19.6985 16.2879 18.8313 13.6094 18.8313 9.56911C18.8313 8.10018 18.2477 6.69141 17.209 5.65271C16.1704 4.61402 14.7616 4.03048 13.2926 4.03048C11.8237 4.03048 10.4149 4.61402 9.37624 5.65271C8.33755 6.69141 7.75402 8.10018 7.75402 9.56911C7.75402 13.6094 6.88674 16.2879 5.95717 17.9921C5.87287 18.1466 5.78826 18.2928 5.70397 18.4309Z" fill="#29343E"/>
<path fill-rule="evenodd" clip-rule="evenodd" d="M10.8205 23.0114C11.3497 22.7044 12.0275 22.8845 12.3345 23.4137C12.4319 23.5816 12.5716 23.7209 12.7398 23.8178C12.908 23.9146 13.0986 23.9656 13.2927 23.9656C13.4867 23.9656 13.6774 23.9146 13.8456 23.8178C14.0137 23.7209 14.1535 23.5816 14.2509 23.4137C14.5578 22.8845 15.2357 22.7044 15.7649 23.0114C16.2941 23.3183 16.4742 23.9962 16.1672 24.5254C15.8751 25.029 15.4558 25.447 14.9513 25.7375C14.4468 26.0281 13.8749 26.1811 13.2927 26.1811C12.7105 26.1811 12.1385 26.0281 11.634 25.7375C11.1295 25.447 10.7103 25.029 10.4181 24.5254C10.1112 23.9962 10.2913 23.3183 10.8205 23.0114Z" fill="#29343E"/>
</svg>
