<svg width="20" height="16" viewBox="0 0 20 16" fill="none" xmlns="http://www.w3.org/2000/svg">
<path d="M10.2981 8.23111C10.7448 7.84442 11.1031 7.36615 11.3487 6.82875C11.5943 6.29136 11.7214 5.70742 11.7214 5.11657C11.7214 4.00631 11.2803 2.94153 10.4953 2.15647C9.7102 1.3714 8.64542 0.930351 7.53517 0.930351C6.42491 0.930351 5.36013 1.3714 4.57506 2.15647C3.79 2.94153 3.34895 4.00631 3.34895 5.11657C3.34894 5.70742 3.47604 6.29136 3.72163 6.82875C3.96721 7.36615 4.32553 7.84442 4.77226 8.23111C3.60024 8.76183 2.60587 9.61887 1.90804 10.6998C1.21021 11.7807 0.838452 13.0397 0.837219 14.3262C0.837219 14.5483 0.925429 14.7613 1.08244 14.9183C1.23946 15.0753 1.45241 15.1635 1.67446 15.1635C1.89651 15.1635 2.10947 15.0753 2.26648 14.9183C2.4235 14.7613 2.51171 14.5483 2.51171 14.3262C2.51171 12.9939 3.04096 11.7162 3.98304 10.7741C4.92513 9.83204 6.20286 9.30279 7.53517 9.30279C8.86747 9.30279 10.1452 9.83204 11.0873 10.7741C12.0294 11.7162 12.5586 12.9939 12.5586 14.3262C12.5586 14.5483 12.6468 14.7613 12.8039 14.9183C12.9609 15.0753 13.1738 15.1635 13.3959 15.1635C13.6179 15.1635 13.8309 15.0753 13.9879 14.9183C14.1449 14.7613 14.2331 14.5483 14.2331 14.3262C14.2319 13.0397 13.8601 11.7807 13.1623 10.6998C12.4645 9.61887 11.4701 8.76183 10.2981 8.23111ZM7.53517 7.6283C7.03839 7.6283 6.55278 7.48099 6.13972 7.205C5.72667 6.929 5.40474 6.53672 5.21463 6.07777C5.02452 5.61881 4.97478 5.11378 5.0717 4.62655C5.16861 4.13933 5.40783 3.69178 5.75911 3.34051C6.11038 2.98924 6.55792 2.75002 7.04515 2.6531C7.53238 2.55619 8.03741 2.60593 8.49636 2.79603C8.95532 2.98614 9.3476 3.30807 9.62359 3.72113C9.89959 4.13418 10.0469 4.6198 10.0469 5.11657C10.0469 5.78272 9.78227 6.42159 9.31123 6.89263C8.84019 7.36367 8.20132 7.6283 7.53517 7.6283ZM15.6899 7.89622C16.2257 7.29284 16.5757 6.54746 16.6978 5.74981C16.8199 4.95215 16.7088 4.13622 16.3779 3.40022C16.0471 2.66422 15.5106 2.03953 14.833 1.60134C14.1554 1.16315 13.3656 0.930136 12.5586 0.930351C12.3366 0.930351 12.1236 1.01856 11.9666 1.17557C11.8096 1.33259 11.7214 1.54554 11.7214 1.76759C11.7214 1.98965 11.8096 2.2026 11.9666 2.35962C12.1236 2.51663 12.3366 2.60484 12.5586 2.60484C13.2248 2.60484 13.8636 2.86947 14.3347 3.34051C14.8057 3.81155 15.0704 4.45042 15.0704 5.11657C15.0692 5.55632 14.9526 5.98806 14.7322 6.3686C14.5118 6.74914 14.1953 7.06515 13.8145 7.28503C13.6904 7.35663 13.5867 7.45889 13.5134 7.58203C13.4401 7.70517 13.3996 7.84506 13.3959 7.98831C13.3924 8.13045 13.4251 8.27113 13.491 8.3971C13.557 8.52308 13.6539 8.63019 13.7726 8.70834L14.0992 8.92603L14.208 8.98463C15.2172 9.4633 16.0686 10.2204 16.6619 11.1668C17.2553 12.1131 17.5658 13.2093 17.557 14.3262C17.557 14.5483 17.6452 14.7613 17.8022 14.9183C17.9592 15.0753 18.1722 15.1635 18.3942 15.1635C18.6163 15.1635 18.8292 15.0753 18.9862 14.9183C19.1432 14.7613 19.2315 14.5483 19.2315 14.3262C19.2383 13.0414 18.9165 11.7762 18.2966 10.6508C17.6768 9.52538 16.7795 8.57716 15.6899 7.89622Z" fill="#222222"/>
</svg>
