<svg width="16" height="12" viewBox="0 0 16 12" fill="none" xmlns="http://www.w3.org/2000/svg">
<path d="M6.59996 0.826666C7.05885 0.719252 7.52867 0.665558 7.99996 0.666666C12.6666 0.666666 15.3333 6 15.3333 6C14.9286 6.75707 14.446 7.46982 13.8933 8.12667M9.41329 7.41333C9.23019 7.60983 9.00939 7.76744 8.76406 7.87675C8.51873 7.98606 8.25389 8.04484 7.98535 8.04958C7.71681 8.05431 7.45007 8.00492 7.20103 7.90433C6.952 7.80374 6.72577 7.65402 6.53586 7.4641C6.34594 7.27418 6.19622 7.04796 6.09563 6.79893C5.99504 6.54989 5.94564 6.28315 5.95038 6.01461C5.95512 5.74606 6.0139 5.48123 6.12321 5.2359C6.23252 4.99057 6.39013 4.76976 6.58663 4.58667M11.96 9.96C10.8204 10.8287 9.4327 11.3099 7.99996 11.3333C3.33329 11.3333 0.666626 6 0.666626 6C1.49589 4.4546 2.64605 3.1044 4.03996 2.04L11.96 9.96Z" stroke="black" stroke-width="1.2" stroke-linecap="round" stroke-linejoin="round"/>
</svg>
