<svg width="20" height="19" viewBox="0 0 20 19" fill="none" xmlns="http://www.w3.org/2000/svg">
<path fill-rule="evenodd" clip-rule="evenodd" d="M16.8418 1.65577C16.5326 1.34661 16.0314 1.34661 15.7222 1.65577C15.6438 1.73416 15.525 1.75325 15.4215 1.71344C14.5722 1.38672 13.5729 1.56584 12.888 2.25079L4.33202 10.8068C4.17932 10.9595 4.17932 11.2071 4.33202 11.3598L8.25739 15.2851C8.41009 15.4378 8.65766 15.4378 8.81036 15.2851L17.3663 6.72914C18.0513 6.04418 18.2304 5.04495 17.9037 4.19562C17.8639 4.09215 17.883 3.97333 17.9614 3.89494C18.2705 3.58578 18.2705 3.08452 17.9614 2.77536L16.8418 1.65577ZM16.3848 4.91847C16.5375 5.07117 16.5375 5.31875 16.3848 5.47145L8.81036 13.046C8.65766 13.1987 8.41009 13.1987 8.25739 13.046L6.57119 11.3598C6.41849 11.2071 6.41849 10.9595 6.57119 10.8068L14.1457 3.23228C14.2984 3.07958 14.5459 3.07957 14.6986 3.23227L16.3848 4.91847Z" fill="#219653"/>
<path d="M2.09231 17.9889C1.80042 18.0685 1.53258 17.8006 1.6122 17.5087L2.9345 12.661C3.01351 12.3713 3.37595 12.2751 3.58824 12.4874L7.11348 16.0131C7.32575 16.2254 7.2295 16.5878 6.93986 16.6668L2.09231 17.9889Z" fill="#219653"/>
</svg>
