<svg width="13" height="13" viewBox="0 0 13 13" fill="none" xmlns="http://www.w3.org/2000/svg">
<path d="M4.89949 6.31371L0.656854 2.07106C0.26633 1.68054 0.26633 1.04738 0.656854 0.656851C1.04738 0.266327 1.68054 0.266327 2.07107 0.656851L6.31371 4.89949L10.5563 0.656851C10.9469 0.266327 11.58 0.266327 11.9706 0.656851C12.3611 1.04738 12.3611 1.68054 11.9706 2.07106L7.72792 6.3137L11.9706 10.5563C12.3611 10.9469 12.3611 11.58 11.9706 11.9706C11.58 12.3611 10.9469 12.3611 10.5563 11.9706L6.31371 7.72792L2.07107 11.9706C1.68054 12.3611 1.04738 12.3611 0.656853 11.9706C0.266329 11.58 0.26633 10.9469 0.656854 10.5563L4.89949 6.31371Z" fill="#586472"/>
</svg>
