<svg width="18" height="20" viewBox="0 0 18 20" fill="none" xmlns="http://www.w3.org/2000/svg">
<path fill-rule="evenodd" clip-rule="evenodd" d="M7.33329 13.6111C7.33329 14.1076 6.95829 14.5139 6.49996 14.5139C6.04163 14.5139 5.66663 14.1076 5.66663 13.6111V10C5.66663 9.50348 6.04163 9.09723 6.49996 9.09723C6.95829 9.09723 7.33329 9.50348 7.33329 10V13.6111ZM12.3333 13.6111C12.3333 14.1076 11.9583 14.5139 11.5 14.5139C11.0416 14.5139 10.6666 14.1076 10.6666 13.6111V10C10.6666 9.50348 11.0416 9.09723 11.5 9.09723C11.9583 9.09723 12.3333 9.50348 12.3333 10V13.6111ZM14 16.3194C14 16.8169 13.6266 17.2222 13.1666 17.2222H4.83329C4.37329 17.2222 3.99996 16.8169 3.99996 16.3194V6.38889H14V16.3194ZM7.33329 3.07389C7.33329 2.93396 7.51163 2.77778 7.74996 2.77778H10.25C10.4883 2.77778 10.6666 2.93396 10.6666 3.07389V4.58334H7.33329V3.07389ZM16.5 4.58334H15.6666H12.3333V3.07389C12.3333 1.91473 11.3991 0.972225 10.25 0.972225H7.74996C6.60079 0.972225 5.66663 1.91473 5.66663 3.07389V4.58334H2.33329H1.49996C1.04163 4.58334 0.666626 4.98959 0.666626 5.48611C0.666626 5.98264 1.04163 6.38889 1.49996 6.38889H2.33329V16.3194C2.33329 17.8126 3.45496 19.0278 4.83329 19.0278H13.1666C14.545 19.0278 15.6666 17.8126 15.6666 16.3194V6.38889H16.5C16.9583 6.38889 17.3333 5.98264 17.3333 5.48611C17.3333 4.98959 16.9583 4.58334 16.5 4.58334Z" fill="#DA1414"/>
</svg>
