<svg width="51" height="50" viewBox="0 0 51 50" fill="none" xmlns="http://www.w3.org/2000/svg">
<path d="M22.4973 2.17154C22.2095 2.28555 22.2041 2.31812 22.2041 4.38652C22.2041 5.59174 22.1824 6.34092 22.1498 6.40607C22.0629 6.56893 21.9489 6.61236 21.0966 6.78609C20.2497 6.95981 19.2182 7.24754 18.6373 7.4647C18.1867 7.63842 18.0619 7.63299 17.8664 7.44841C17.7796 7.36698 17.3127 6.61236 16.8295 5.76546C16.3463 4.92398 15.912 4.19651 15.8686 4.15308C15.8252 4.10965 15.6949 4.07165 15.5809 4.07165C15.4126 4.07165 15.0217 4.27795 13.3496 5.24429C12.2312 5.8849 11.2758 6.45493 11.2269 6.50379C11.1726 6.55807 11.1183 6.67208 11.102 6.75895C11.0749 6.90009 11.2052 7.16068 12.0141 8.5559C12.5298 9.45167 12.9696 10.228 12.9913 10.2769C13.0619 10.456 12.9099 10.684 12.4701 11.064C12.0141 11.4549 10.9663 12.5136 10.4234 13.127C10.1683 13.4039 10.0923 13.4636 9.94568 13.4636C9.82082 13.4636 9.32136 13.203 8.13243 12.5136C7.1118 11.9272 6.43319 11.5635 6.3409 11.5635C6.25947 11.5635 6.13461 11.6178 6.0586 11.6829C5.98803 11.7535 5.39628 12.7253 4.75567 13.8436C3.53417 15.9663 3.47445 16.0966 3.68075 16.3301C3.72961 16.3898 4.48423 16.8458 5.34742 17.3398C6.21604 17.8393 6.96522 18.2953 7.01951 18.355C7.15524 18.5179 7.13352 18.6916 6.92179 19.3322C6.69378 19.9946 6.39519 21.1183 6.27033 21.7698C6.22147 22.025 6.15632 22.3018 6.12375 22.3833C6.00974 22.6819 5.93374 22.6927 3.85448 22.6927H1.94894L1.81864 22.8284L1.68292 22.9587V25.4777V27.9967L1.80779 28.1107C1.93265 28.2302 1.9598 28.2302 3.84905 28.2302C5.93917 28.2302 6.00974 28.241 6.12375 28.5396C6.15632 28.621 6.22147 28.8979 6.27033 29.1531C6.39519 29.8045 6.69378 30.9283 6.92179 31.5906C7.14438 32.2584 7.15524 32.4104 6.98694 32.5896C6.92179 32.6656 6.17261 33.1216 5.32027 33.6102C4.47337 34.0988 3.72961 34.544 3.68075 34.5928C3.46902 34.8045 3.52874 34.9566 4.75567 37.0792C5.40171 38.1976 5.97717 39.1694 6.04231 39.2399C6.17804 39.3865 6.39519 39.392 6.66664 39.2562C6.77521 39.1965 7.5244 38.7676 8.3333 38.3062C9.31593 37.7361 9.84796 37.4593 9.95654 37.4593C10.0814 37.4593 10.1737 37.5244 10.3908 37.7687C10.8849 38.3279 12.177 39.6308 12.5515 39.9403C12.7578 40.114 12.9424 40.3149 12.975 40.4072C13.0401 40.608 13.0781 40.5374 11.9218 42.5353C11.4549 43.3387 11.0749 44.0554 11.0749 44.1205C11.0749 44.1911 11.14 44.3159 11.2269 44.4028C11.368 44.5548 15.2117 46.7969 15.4614 46.8784C15.7709 46.9707 15.8523 46.8675 16.7806 45.2551C17.7687 43.5396 17.8664 43.393 18.051 43.3442C18.127 43.3225 18.4853 43.4148 19.0119 43.583C19.8642 43.8599 20.608 44.0554 21.4712 44.2237C21.8404 44.2942 21.9869 44.3485 22.0792 44.4517L22.2041 44.5874V46.5364V48.4908L22.3615 48.6482L22.519 48.8056H24.9945H27.4647L27.6167 48.6753L27.7687 48.545L27.785 46.6232C27.7904 45.57 27.8067 44.6525 27.823 44.5874C27.8664 44.4028 28.051 44.3105 28.5559 44.2182C29.2616 44.0879 30.4669 43.7676 31.1455 43.5342C31.8295 43.3007 31.9001 43.2899 32.0684 43.4039C32.1281 43.4473 32.5895 44.1911 33.089 45.0597C33.5885 45.9283 34.0391 46.6884 34.0933 46.7535C34.3105 47.0195 34.4462 46.9652 36.6449 45.6895C37.7633 45.038 38.7242 44.468 38.7785 44.4245C39.0011 44.2182 38.9251 44.0228 37.9153 42.2801C37.1118 40.8849 36.9707 40.608 36.9924 40.4723C37.0141 40.3583 37.1281 40.2171 37.3615 40.0108C37.7796 39.6471 39.1096 38.3225 39.5548 37.8284C39.8154 37.5353 39.9131 37.4593 40.038 37.4593C40.1411 37.4593 40.7437 37.7741 41.8404 38.4093C42.9587 39.0554 43.5342 39.3594 43.6427 39.3594C43.735 39.3594 43.8599 39.3051 43.9359 39.2345C44.1151 39.0771 46.4169 35.0597 46.4169 34.9186C46.4169 34.6363 46.3029 34.5494 44.7502 33.6536C43.8925 33.165 43.1379 32.7199 43.0673 32.6601C42.8121 32.4647 42.8121 32.3561 43.0727 31.5798C43.3279 30.8306 43.5776 29.8751 43.7296 29.0988C43.8545 28.4582 43.8545 28.4528 44.0445 28.3333C44.2074 28.2356 44.3376 28.2302 46.1346 28.2302H48.051L48.1813 28.0944L48.317 27.9642V25.4723C48.317 23.0944 48.3116 22.9696 48.2139 22.8501L48.1107 22.7199L46.0966 22.6927C44.1422 22.6656 44.0825 22.6601 43.9685 22.5516C43.8871 22.4701 43.8165 22.2367 43.7025 21.7101C43.5179 20.8089 43.3224 20.0814 43.0456 19.2671C42.8176 18.5993 42.8176 18.4745 43.0293 18.2899C43.089 18.241 43.8273 17.8013 44.6797 17.3127C45.5266 16.8241 46.2703 16.3789 46.3192 16.3301C46.5255 16.1238 46.4603 15.9772 45.2226 13.8273C44.5602 12.6873 43.9739 11.7101 43.9142 11.6558C43.849 11.6069 43.735 11.5635 43.6536 11.5635C43.5667 11.5635 42.861 11.9381 41.8566 12.5136C40.7654 13.1433 40.1465 13.4636 40.0434 13.4636C39.8751 13.4636 39.886 13.4745 38.8979 12.405C38.5722 12.0521 38.0184 11.5092 37.6656 11.1998C37.2095 10.7926 37.0249 10.5917 36.9978 10.4723C36.9652 10.3311 37.0901 10.0923 37.9153 8.65362C38.9196 6.91638 38.9793 6.76437 38.7785 6.5255C38.7242 6.46578 37.7633 5.89032 36.6449 5.24429C34.5385 4.03365 34.3702 3.95764 34.1368 4.1368C34.0879 4.1748 33.6427 4.91312 33.1433 5.78175C32.6438 6.64494 32.177 7.41041 32.1064 7.47556C31.9327 7.63299 31.7915 7.63299 31.3518 7.4647C30.76 7.24212 29.5331 6.91095 28.7676 6.75895C27.709 6.55807 27.7958 6.7698 27.7958 4.47338C27.7958 2.4267 27.7741 2.28012 27.4973 2.17154C27.3181 2.10639 22.6601 2.10639 22.4973 2.17154ZM27.3887 8.74049C29.2834 9.02822 30.9066 9.5331 32.5244 10.3474C37.443 12.8121 40.912 17.5624 41.6938 22.9099C42.3887 27.6764 41.14 32.3073 38.1324 36.0858C37.2855 37.1498 35.7926 38.5342 34.5819 39.3757C33.2899 40.2714 31.4441 41.1726 30.0217 41.6069C28.4039 42.0901 27.1335 42.291 25.38 42.329C23.0401 42.3778 21.1943 42.0792 19.1368 41.3138C16.8078 40.4452 14.9022 39.2182 13.1053 37.4321C11.5961 35.9283 10.6569 34.6091 9.74481 32.7253C7.50811 28.089 7.55697 22.557 9.86968 17.9424C12.291 13.0999 16.9055 9.67968 22.2041 8.8002C23.3007 8.61562 23.8328 8.58305 25.2714 8.60476C26.3029 8.62105 26.8132 8.65362 27.3887 8.74049Z" fill="#19404D"/>
<path d="M23.6699 8.69162C20.6406 8.93592 17.6221 10.0488 15.1737 11.8241C11.6666 14.3648 9.3105 18.051 8.47445 22.2855C8.089 24.2508 8.089 26.6341 8.47445 28.6428C9.50594 34.0065 13.1759 38.621 18.1867 40.8415C25.1574 43.9305 33.3007 41.949 38.0944 35.9935C40.1846 33.3985 41.444 30.2714 41.7535 26.911C41.8404 25.9446 41.7861 24.0119 41.6503 23.0999C40.9066 18.279 38.3333 14.1911 34.3539 11.5038C31.2432 9.40281 27.405 8.39304 23.6699 8.69162ZM26.0586 9.6091C28.9142 9.82626 31.4821 10.7003 33.7948 12.2421C36.8404 14.2725 39.0282 17.1933 40.1628 20.7437C40.7492 22.5896 41.0043 24.8914 40.8306 26.8241C40.3148 32.4647 36.9381 37.3453 31.8675 39.7883C26.7372 42.253 20.6514 41.7807 15.988 38.5559C12.367 36.0586 9.98911 32.2584 9.27793 27.8501C9.13135 26.9707 9.07706 24.8914 9.17478 23.9631C9.63623 19.4245 11.8675 15.456 15.494 12.7361C18.5125 10.4669 22.3561 9.33223 26.0586 9.6091Z" fill="#19404D"/>
<path d="M27.1607 10.3094L27.0358 10.4506L27.1824 10.4832C27.2801 10.4994 27.3833 10.4777 27.481 10.4126C27.7036 10.2606 27.7036 10.2226 27.4919 10.1954C27.329 10.1791 27.2693 10.2009 27.1607 10.3094Z" fill="#19404D"/>
<path d="M24.962 11.3029C24.9511 11.7915 24.9511 12.1933 24.9511 12.2041C24.9565 12.2095 25.2063 12.2313 25.5103 12.253L26.0586 12.2856V12.1227C26.0586 11.9327 25.9717 11.8892 25.5809 11.8892H25.3474L25.3854 11.1563L25.4234 10.4234H25.2008H24.9783L24.962 11.3029Z" fill="#19404D"/>
<path d="M23.3442 10.5809C23.2356 10.6352 23.1053 10.7763 23.0293 10.9175C22.9207 11.1183 22.9045 11.2106 22.9262 11.4766C22.9587 11.8295 23.0619 12.0087 23.3442 12.1987C23.7242 12.4593 24.354 12.2855 24.5385 11.8784C24.7503 11.4169 24.6145 10.8035 24.2562 10.5863C24.0228 10.4451 23.5993 10.4397 23.3442 10.5809ZM24.0879 11.0152C24.3105 11.3463 24.2074 11.9001 23.9088 11.9761C23.5016 12.0792 23.1922 11.4712 23.4256 11.0206C23.5179 10.8415 23.5831 10.8035 23.8056 10.8197C23.9197 10.8252 24.0011 10.8795 24.0879 11.0152Z" fill="#19404D"/>
<path d="M26.7861 10.5917C26.2703 10.7383 26.026 11.5852 26.3518 12.0792C26.5581 12.3941 27.2095 12.5135 27.5081 12.291C28.1542 11.8132 28.0456 10.7926 27.329 10.5917C27.0847 10.5211 27.0195 10.5211 26.7861 10.5917ZM27.2258 10.912C27.405 10.9826 27.5461 11.2975 27.4918 11.5309C27.3995 11.9544 27.1715 12.1552 26.9001 12.0521C26.7209 11.9815 26.5798 11.6666 26.6341 11.4332C26.7047 11.0966 26.8187 10.95 27.0738 10.8632C27.0792 10.8577 27.1444 10.8795 27.2258 10.912Z" fill="#19404D"/>
<path d="M22.1932 10.6786C22.1064 10.6894 22.0412 10.7329 22.0412 10.7654C22.0412 10.8034 22.1009 11.0749 22.1715 11.3681L22.3018 11.9055L22.1607 11.7209C22.0792 11.6178 21.8729 11.3843 21.6992 11.2052L21.3843 10.8686L21.1726 10.9229C21.0532 10.9555 20.9554 11.0097 20.9554 11.0423C20.9554 11.1292 21.3192 12.709 21.3463 12.7253C21.3518 12.7361 21.4386 12.7198 21.5309 12.6981L21.7046 12.6493L21.5743 12.101C21.5038 11.8024 21.444 11.5309 21.444 11.5038C21.444 11.4603 21.8566 11.9109 22.2367 12.367C22.3344 12.4864 22.3724 12.4973 22.5787 12.4593C22.7144 12.4375 22.8013 12.3941 22.785 12.3615C22.7741 12.3235 22.6818 11.9218 22.5787 11.4712C22.4755 11.0152 22.3832 10.646 22.367 10.6514C22.3507 10.6514 22.2747 10.6677 22.1932 10.6786Z" fill="#19404D"/>
<path d="M28.5505 11.1455C28.1976 11.3789 28.0184 11.9652 28.1976 12.3127C28.3713 12.6493 28.7839 12.8664 29.2399 12.8664H29.4734L29.5874 12.4701C29.6525 12.2584 29.7122 12.0521 29.7231 12.0195C29.7448 11.9489 29.1476 11.7644 29.0934 11.8241C29.0716 11.8458 29.0391 11.9164 29.0228 11.9761C28.9956 12.0684 29.0119 12.101 29.1259 12.1281C29.2454 12.1607 29.2562 12.1824 29.2291 12.3127C29.1748 12.5353 29.1314 12.557 28.9196 12.4701C28.507 12.2964 28.431 11.7969 28.773 11.4929C28.9685 11.3192 29.1476 11.3083 29.4625 11.4549L29.696 11.5581L29.7774 11.4386C29.8968 11.2703 29.886 11.2432 29.6308 11.1292C29.2942 10.9772 28.7893 10.9826 28.5505 11.1455Z" fill="#19404D"/>
<path d="M20.1411 11.2106C19.7177 11.3463 19.4354 11.7101 19.4354 12.1227C19.4354 12.3833 19.6742 12.823 19.8805 12.9479C20.1194 13.089 20.532 13.0781 20.8306 12.9316C21.1129 12.785 21.1346 12.7524 21.0315 12.6058L20.9555 12.4918L20.7057 12.6058C20.3854 12.747 20.1683 12.6927 19.9945 12.4375C19.7285 12.0412 19.886 11.6341 20.3528 11.5092C20.5591 11.4549 20.5809 11.4332 20.5646 11.3029C20.5429 11.1292 20.4614 11.1129 20.1411 11.2106Z" fill="#19404D"/>
<path d="M30.2985 11.5201C30.2714 11.5907 30.1248 11.9598 29.9782 12.3507L29.7068 13.0565L29.8208 13.1216C30.0597 13.2573 30.0922 13.2193 30.3854 12.443C30.5428 12.0358 30.684 11.6612 30.7003 11.6124C30.7274 11.5472 30.684 11.5038 30.5591 11.4604C30.3365 11.3844 30.3528 11.3789 30.2985 11.5201Z" fill="#19404D"/>
<path d="M18.3387 11.9761C18.0727 12.1064 17.861 12.2421 17.861 12.2693C17.861 12.3398 18.6156 13.8436 18.6481 13.8436C18.697 13.8436 19.6525 13.355 19.6525 13.3279C19.6525 13.317 19.6253 13.2465 19.5928 13.1704L19.5276 13.0347L19.2073 13.1976C19.0282 13.2899 18.8762 13.355 18.8653 13.3442C18.8599 13.3333 18.8164 13.2519 18.7676 13.1596L18.6807 12.9967L18.9793 12.8501C19.2562 12.7144 19.267 12.6981 19.2073 12.5678C19.1313 12.3995 19.115 12.3995 18.7893 12.5678L18.5233 12.6981L18.4581 12.5353C18.3767 12.3453 18.355 12.3724 18.7187 12.1932L19.001 12.0521L18.9196 11.8892C18.8707 11.7969 18.8273 11.7264 18.8219 11.7318C18.8164 11.7318 18.5993 11.8404 18.3387 11.9761Z" fill="#19404D"/>
<path d="M31.2649 11.9978C30.912 12.1009 30.6514 12.4267 30.5917 12.8447C30.5428 13.1704 30.7328 13.5016 31.0803 13.697C31.4223 13.8816 31.6178 13.8762 31.6395 13.6645C31.6503 13.5613 31.634 13.5179 31.5689 13.5179C31.406 13.5179 31.1617 13.355 31.0749 13.1813C30.9609 12.9587 31.0423 12.6601 31.2757 12.4647C31.4875 12.2855 31.6883 12.2855 31.9489 12.4647L32.1606 12.6058L32.2584 12.4755C32.3561 12.3507 32.3561 12.3507 32.1878 12.2041C32.0955 12.1281 31.9109 12.0358 31.786 12.0032C31.52 11.9381 31.4657 11.9327 31.2649 11.9978Z" fill="#19404D"/>
<path d="M16.9272 12.7742C16.6395 12.9587 16.3897 13.127 16.3735 13.1379C16.3626 13.1542 16.3897 13.2248 16.444 13.2953L16.5417 13.4256L16.7426 13.3008C16.8566 13.2356 16.9489 13.1868 16.9598 13.1976C16.9652 13.2085 17.1389 13.4799 17.3398 13.8002C17.5407 14.1259 17.7252 14.3865 17.7415 14.3865C17.7632 14.3865 17.8447 14.3431 17.9261 14.2888L18.0727 14.1911L17.7144 13.6265C17.5189 13.3116 17.3507 13.0293 17.3344 12.9967C17.3235 12.9642 17.3995 12.8827 17.5027 12.823C17.6818 12.7144 17.6927 12.6982 17.633 12.5679C17.6004 12.4919 17.5461 12.4321 17.5135 12.4321C17.4809 12.4321 17.2149 12.5896 16.9272 12.7742Z" fill="#19404D"/>
<path d="M32.519 12.823C32.3778 12.8936 32.2095 13.0456 32.1172 13.1813C31.6938 13.7839 32.0847 14.5494 32.8121 14.5494C33.1813 14.5494 33.4365 14.3757 33.6265 13.9956C33.7948 13.6645 33.8002 13.5125 33.6645 13.2139C33.469 12.785 32.9424 12.6058 32.519 12.823ZM33.2247 13.1922C33.431 13.3985 33.3333 13.8056 33.0076 14.0825C32.8013 14.2508 32.6873 14.2616 32.4973 14.1096C32.2638 13.9251 32.3235 13.5287 32.633 13.241C32.8339 13.0564 33.0673 13.0347 33.2247 13.1922Z" fill="#19404D"/>
<path d="M23.8599 13.1976C20.5809 13.4962 17.4973 15.1411 15.456 17.671C14.2128 19.2128 13.3224 21.1075 12.9533 22.9967C12.2204 26.7481 13.2247 30.532 15.7112 33.4256C17.7036 35.7437 20.532 37.215 23.6645 37.5733C24.3974 37.6547 26.2378 37.6058 26.9272 37.4918C29.4517 37.0575 31.6504 35.95 33.4473 34.2182C34.9131 32.8013 35.9609 31.1346 36.5852 29.2345C37.2692 27.1335 37.3832 24.886 36.9109 22.6927C36.3789 20.2388 34.924 17.8067 32.9913 16.1455C31.1943 14.5982 28.9956 13.5939 26.7101 13.2736C25.9337 13.165 24.5765 13.127 23.8599 13.1976ZM25.076 14.8751C25.5266 15.4777 25.7492 15.8957 25.9717 16.5581C26.2866 17.5136 26.3246 18.3985 26.0857 19.3322C25.9826 19.734 25.6026 20.5754 25.5266 20.5754C25.4506 20.5754 25.0597 19.9403 24.9022 19.5657C24.6634 18.9956 24.5765 18.5288 24.5765 17.8881C24.5765 17.557 24.5982 17.2313 24.6308 17.1661C24.6742 17.0575 24.6905 17.1064 24.7448 17.4647C24.8154 17.9099 25.0923 18.5722 25.2931 18.7513C25.3963 18.8436 25.4017 18.8436 25.4451 18.583C25.5211 18.127 25.4886 17.0521 25.3854 16.6666C25.2768 16.2595 24.9783 15.6243 24.7937 15.3963L24.6688 15.2388L24.4951 15.5103C24.0771 16.1618 23.887 16.8729 23.887 17.8121C23.887 19.0065 24.2074 20.0868 24.9022 21.2378C25.0054 21.4115 25.1085 21.5526 25.1303 21.5526C25.152 21.5526 25.2877 21.3898 25.4289 21.1943C26.2649 20.0543 27.6058 19.1151 29.0716 18.6265C29.81 18.3822 30.5971 18.203 30.6569 18.2627C30.684 18.2845 30.6949 18.6536 30.6949 19.0716C30.684 19.7068 30.6569 19.9403 30.5429 20.3854C30.1846 21.7752 29.2942 22.8881 28.0401 23.507C27.5733 23.7351 26.8295 23.9685 26.3789 24.0282L26.0966 24.0662L26.1346 23.6699C26.2866 22.0358 27.0738 20.9446 28.3876 20.5537C28.8382 20.4234 28.887 20.4506 28.5396 20.6406C27.9044 20.988 27.4213 21.6341 27.0684 22.6276L26.9272 23.0293L27.1009 22.9913C27.3832 22.9316 27.975 22.6656 28.3224 22.443C29.1205 21.9327 29.7068 21.0478 29.9131 20.0326C30.0271 19.4788 30.0543 19.0554 29.9728 19.0554C29.9457 19.0554 29.7068 19.1314 29.4408 19.2236C27.1661 20.0271 25.8577 21.5472 25.5754 23.7133C25.5429 23.9413 25.5103 24.2834 25.494 24.4625L25.4723 24.7991L25.9174 24.5928C26.8186 24.1639 27.8881 23.9413 29.0011 23.9413C29.696 23.9413 30.6297 24.0662 31.1998 24.2399L31.4821 24.3214L31.3518 24.6905C31.0586 25.5374 30.7709 26.0098 30.2443 26.5092C29.5548 27.1607 28.8545 27.3941 27.7253 27.3507C27.1009 27.3235 26.2106 27.1607 26.0043 27.0358C25.9392 26.9978 25.9717 26.9218 26.1889 26.6015C26.6558 25.9175 27.2421 25.4994 27.9696 25.3257C28.3333 25.2389 28.8273 25.2226 29.1802 25.2823C29.3756 25.3149 29.3431 25.3257 28.8762 25.3854C28.0999 25.4832 27.7144 25.7112 27.3072 26.3029C27.215 26.4332 27.1607 26.5526 27.1878 26.5689C27.2095 26.5798 27.4755 26.6232 27.7796 26.6558C29.0879 26.8078 29.8751 26.4115 30.4017 25.3311C30.7003 24.7177 30.7003 24.6905 30.4017 24.6308C30.266 24.5982 29.7665 24.5765 29.2888 24.5765C28.5722 24.5765 28.3442 24.5982 27.9913 24.696C26.9598 24.9728 26.1726 25.5592 25.798 26.3246C25.6026 26.7264 25.5971 26.7535 25.5971 27.3344C25.5971 27.899 25.608 27.9533 25.7763 28.3116C26.1998 29.2019 26.8784 29.7883 28.1053 30.3257C28.4473 30.4723 28.4962 30.5103 28.3876 30.532C26.8241 30.8469 26.0206 31.2161 25.2388 31.9598L24.924 32.2584L24.6362 32.0032C23.8599 31.2975 22.899 30.8686 21.6612 30.6677L21.2595 30.6026L21.7481 30.3746C22.0141 30.2497 22.367 30.0651 22.5353 29.9565C22.8447 29.7611 23.507 29.1748 23.507 29.0988C23.507 29.0065 22.3778 28.5016 21.8946 28.3713C21.3898 28.241 20.38 28.0836 20.3311 28.1324C20.2986 28.1596 21.0912 30.9229 21.1672 31.0532C21.1943 31.1075 21.3463 31.1509 21.5852 31.178C22.9967 31.3355 24.1368 32.0412 24.6579 33.089C24.8751 33.5179 24.8317 33.5288 24.4245 33.1433C23.583 32.3453 22.3941 31.9327 20.5809 31.7969L20.3963 31.7861L19.7828 29.6145C19.4408 28.4202 19.1639 27.4267 19.1639 27.3995C19.1639 27.291 20.5483 27.4104 21.2052 27.5787C22.0792 27.8013 22.6981 28.1324 23.2302 28.659C23.6319 29.0554 23.6102 29.0662 23.8979 28.4636C24.3431 27.5298 24.1802 26.5418 23.4527 25.7709C22.5787 24.8371 21.1998 24.4951 19.3974 24.7665C19.1042 24.81 19.0011 24.848 19.0011 24.9077C19.0011 25.0923 19.4191 25.8197 19.696 26.1183C20.114 26.5744 20.456 26.7264 21.1129 26.7535C21.5852 26.7752 22.5298 26.6829 22.5298 26.6178C22.5298 26.5418 22.1281 26.0586 21.9761 25.9392C21.5526 25.6134 20.8034 25.4017 20.3908 25.4832C20.2714 25.5103 20.2443 25.4994 20.2877 25.456C20.3203 25.4234 20.5863 25.3854 20.8794 25.3691C21.7264 25.3203 22.3778 25.532 22.9587 26.0423C23.2247 26.2758 23.7242 26.9109 23.7242 27.0195C23.7242 27.0901 23.0401 27.291 22.4864 27.3941C20.5591 27.7361 19.0825 26.9001 18.3442 25.0434C18.2573 24.8208 18.1867 24.6091 18.1867 24.5657C18.1867 24.4734 18.6645 24.3159 19.3702 24.1748C20.0488 24.0391 21.6721 24.0391 22.3127 24.1802C22.7796 24.2834 23.735 24.5928 24.0065 24.734C24.1856 24.8263 24.1802 24.8588 24.1042 24.1856C23.9468 22.7959 23.5016 21.7807 22.6818 20.9229C22.0032 20.2171 21.2486 19.7665 20.0977 19.3811C19.7502 19.2617 19.4571 19.1748 19.4462 19.1856C19.4408 19.1965 19.4679 19.4517 19.5114 19.7503C19.7068 21.0369 20.3094 21.9815 21.3246 22.5787C21.6992 22.8013 22.5515 23.1216 22.6113 23.0673C22.6601 23.013 22.329 22.2204 22.0955 21.8241C21.8295 21.3735 21.4549 21.0098 21.0097 20.7655L20.6569 20.57L20.9012 20.608C22.3018 20.8143 23.2844 22.0195 23.4853 23.7731C23.5287 24.1585 23.5613 24.1422 22.9261 24.0228C20.228 23.5125 18.659 21.4712 18.773 18.6319C18.7839 18.355 18.7839 18.355 19.5548 18.5179C20.9012 18.7948 22.1878 19.4082 23.1922 20.2497L23.3876 20.4126L23.3116 20.1628C23.0727 19.3594 23.0021 18.0456 23.1596 17.2801C23.2844 16.6775 23.5342 16.0206 23.8328 15.5266C24.1368 15.0217 24.6417 14.3757 24.7068 14.4191C24.7285 14.4299 24.8968 14.6362 25.076 14.8751ZM30.6189 27.2367C30.6189 27.2638 30.3637 28.2682 30.0543 29.4788L29.4951 31.6775L29.3105 31.6938C27.5624 31.8241 26.1075 32.405 25.3528 33.2627C25.1737 33.469 25.1357 33.4962 25.1628 33.3876C25.4886 32.2041 26.8404 31.2323 28.3713 31.0749L28.7079 31.0369L29.0933 29.5494C29.3105 28.7296 29.4734 28.0402 29.4517 28.0239C29.4082 27.9804 28.5993 28.0999 28.1161 28.2302C27.6058 28.3605 26.9869 28.621 26.6123 28.8599C26.4549 28.9631 26.3138 29.0445 26.3029 29.0445C26.1292 29.0445 26.7426 28.3985 27.2095 28.089C27.6547 27.7904 28.203 27.5678 28.8599 27.4104C29.5222 27.253 30.6189 27.1444 30.6189 27.2367ZM31.6286 28.3767C31.5961 28.4853 30.5646 32.7199 30.5646 32.747C30.5646 32.7579 30.1085 32.7633 29.5439 32.7687C28.0021 32.7796 26.8838 32.975 26.0315 33.3876C25.7926 33.5016 25.5863 33.5885 25.5754 33.5722C25.5646 33.5613 25.646 33.4473 25.7546 33.3116C26.3409 32.595 27.5353 32.101 29.0173 31.9707C29.3756 31.9381 29.696 31.9055 29.7231 31.8947C29.7557 31.8892 29.9565 31.1509 30.1791 30.2606C30.4017 29.3648 30.6026 28.5559 30.6297 28.4582L30.6786 28.2845H31.1672C31.6069 28.2845 31.6558 28.2953 31.6286 28.3767ZM19.1313 28.4962C19.1531 28.5233 19.3811 29.3268 19.6471 30.2769L20.1303 32.0032L20.5809 32.0412C22.3995 32.1932 23.317 32.5027 24.0391 33.1976C24.4354 33.583 24.4734 33.7079 24.1368 33.5179C23.7948 33.3279 23.2302 33.1433 22.6113 33.0293C22.1715 32.9479 21.8132 32.9261 20.7274 32.9261H19.3811L19.3051 32.6547C19.1476 32.1172 18.1867 28.5668 18.1867 28.5396C18.1867 28.4527 19.0825 28.4147 19.1313 28.4962ZM32.8013 29.4517C32.823 29.4734 31.6721 33.9251 31.6341 33.9685C31.6232 33.9739 31.4441 33.9468 31.2378 33.9033C31.0315 33.8599 30.6677 33.8002 30.4289 33.7676C29.7828 33.6808 27.4864 33.6373 26.7101 33.7025C26.3355 33.7351 26.0206 33.7513 26.0152 33.7405C26.0043 33.7296 26.0857 33.659 26.2052 33.583C26.4929 33.393 27.1389 33.1867 27.7741 33.089C28.3333 32.9967 29.8317 32.9696 30.4669 33.0347L30.8089 33.0727L31.2052 31.4441C31.4223 30.5483 31.6232 29.7285 31.6558 29.62L31.7101 29.4245H32.2421C32.5353 29.4245 32.785 29.4354 32.8013 29.4517ZM18.1976 29.8425C18.241 29.9891 18.469 30.8089 18.7025 31.6666L19.1313 33.2356L19.2725 33.1976C19.3485 33.1813 19.9294 33.1542 20.5646 33.1324C21.8078 33.0999 22.443 33.1542 23.0727 33.3442C23.3876 33.4419 23.9413 33.6862 23.9413 33.7296C23.9413 33.7405 23.2519 33.7513 22.4104 33.7513C20.7872 33.7513 19.8588 33.8273 18.849 34.0445C18.5667 34.1042 18.3333 34.1476 18.3224 34.1368C18.2899 34.1042 17.0467 29.81 17.0467 29.7285C17.0467 29.6634 17.1281 29.6417 17.4701 29.6254C17.6981 29.62 17.9424 29.6037 18.0076 29.5982C18.1053 29.5874 18.1379 29.6308 18.1976 29.8425Z" fill="#19404D"/>
<path d="M15.3908 13.9359C15.2225 13.9794 14.9402 14.2128 14.848 14.3865C14.7448 14.5874 14.7448 15 14.8425 15.1954C14.962 15.418 15.2768 15.6786 15.5157 15.7383C16.102 15.8958 16.6449 15.3637 16.5418 14.7286C16.4603 14.24 15.8523 13.8219 15.3908 13.9359ZM15.7111 14.3594C16.2486 14.6146 16.3192 15.38 15.8089 15.38C15.3148 15.38 14.9402 14.6688 15.2877 14.392C15.4614 14.2562 15.4886 14.2562 15.7111 14.3594Z" fill="#19404D"/>
<path d="M34.6525 14.2508C34.3485 14.3811 34.2834 14.6688 34.4788 15.0434C34.7014 15.4886 34.4734 15.6949 34.1531 15.3366C34.0608 15.228 33.9848 15.1194 33.9848 15.0869C33.9848 15.038 33.9142 15.0651 33.7188 15.1954C33.6048 15.2714 33.8328 15.608 34.1151 15.7709C34.43 15.9555 34.658 15.95 34.8588 15.7492C35.0489 15.5592 35.0597 15.38 34.9077 15.0434C34.7774 14.7557 34.772 14.6091 34.8914 14.5657C34.9566 14.5385 35.038 14.5983 35.1737 14.7503C35.3583 14.9566 35.38 14.962 35.494 14.886C35.5592 14.8426 35.6135 14.7774 35.6135 14.7448C35.6135 14.6363 35.2986 14.3322 35.0977 14.2508C34.8751 14.1531 34.8697 14.1531 34.6525 14.2508Z" fill="#19404D"/>
<path d="M13.8708 15.2986C13.317 15.8958 13.317 15.8958 13.4582 16.0315L13.5722 16.1455L13.7459 15.9772L13.925 15.8035L14.4516 16.2921L14.9837 16.7861L15.1194 16.6287L15.2551 16.4767L14.7285 15.9772L14.1965 15.4777L14.3485 15.3203C14.5276 15.1357 14.5331 15.076 14.3702 14.9674C14.2508 14.8914 14.2345 14.9023 13.8708 15.2986Z" fill="#19404D"/>
<path d="M35.57 15.4886C34.8589 16.102 34.7557 16.4603 35.1792 16.8838C35.6135 17.3181 35.9121 17.2095 36.9598 16.2595C37.0141 16.2106 36.9924 16.1672 36.873 16.0532L36.7264 15.912L36.3192 16.2649C35.722 16.7915 35.4995 16.8566 35.342 16.5581C35.2552 16.3952 35.3855 16.1943 35.8252 15.836C36.3518 15.3963 36.3409 15.4071 36.1672 15.2388L36.0206 15.0977L35.57 15.4886Z" fill="#19404D"/>
<path d="M12.9533 16.3681C12.9044 16.4441 12.8773 16.5309 12.8936 16.5581C12.9099 16.5852 13.1162 16.7427 13.355 16.911C13.7839 17.215 13.9522 17.3833 13.9522 17.519C13.9522 17.6276 13.7459 17.8067 13.6265 17.8067C13.5668 17.8067 13.2899 17.6493 13.0022 17.4538C12.7199 17.2584 12.4756 17.101 12.4647 17.101C12.4484 17.101 12.3887 17.1715 12.329 17.2584L12.2204 17.4104L12.7361 17.7796C13.165 18.0836 13.3062 18.1542 13.5179 18.1759C13.8165 18.203 14.0011 18.1107 14.1694 17.8339C14.2997 17.6167 14.3105 17.2584 14.1857 17.0684C14.1042 16.9381 13.165 16.2323 13.0836 16.2323C13.0619 16.2323 13.0022 16.2921 12.9533 16.3681Z" fill="#19404D"/>
<path d="M36.5906 17.1064C36.2486 17.3453 35.9337 17.5624 35.8903 17.5841C35.8252 17.6221 35.836 17.6602 35.9337 17.8013L36.0532 17.9696L36.2975 17.8013L36.5418 17.633L36.7535 17.8556C37.0195 18.127 37.2692 18.1868 37.5244 18.0402C37.7524 17.9099 37.861 17.6873 37.8176 17.4593C37.7741 17.2476 37.4104 16.6992 37.2964 16.683C37.253 16.6775 36.9327 16.8675 36.5906 17.1064ZM37.4593 17.4593C37.4593 17.6384 37.2312 17.7796 37.0847 17.6982C37.0249 17.6656 36.9489 17.595 36.9164 17.5353C36.8675 17.4484 36.8892 17.4104 37.0629 17.2964C37.2475 17.1661 37.2692 17.1661 37.3615 17.2476C37.4158 17.2964 37.4593 17.3941 37.4593 17.4593Z" fill="#19404D"/>
<path d="M11.7752 18.1705C11.6503 18.4039 11.5037 18.6699 11.444 18.7676L11.3409 18.9414L11.5037 19.0282L11.6666 19.1097L11.7806 18.8979L11.8892 18.6808L12.5244 19.0337C12.8718 19.2237 13.165 19.3811 13.1704 19.3811C13.1921 19.3811 13.355 19.0717 13.355 19.0337C13.355 19.0228 13.0781 18.8599 12.747 18.6753C12.4104 18.4908 12.1226 18.3279 12.1118 18.317C12.1009 18.3116 12.1498 18.2139 12.2149 18.1053C12.3344 17.9153 12.3344 17.9044 12.2366 17.8339C12.1769 17.7904 12.1064 17.7524 12.0684 17.7524C12.0358 17.7524 11.9001 17.9424 11.7752 18.1705Z" fill="#19404D"/>
<path d="M37.405 18.4908C37.0032 18.7079 36.6775 18.9142 36.6884 18.9468C36.6938 18.9794 36.8132 19.2074 36.949 19.4625C37.1824 19.9023 37.1987 19.9186 37.329 19.8588C37.4918 19.7828 37.4918 19.7665 37.3236 19.4354C37.1553 19.1042 37.1553 19.0879 37.3236 19.0119C37.5299 18.9196 37.5353 18.9251 37.6764 19.2182C37.747 19.3648 37.8122 19.4897 37.8176 19.4897C37.8773 19.4897 38.1107 19.3539 38.1107 19.3268C38.1107 19.3051 38.0456 19.1694 37.9642 19.0282C37.8284 18.7785 37.823 18.7676 37.9207 18.6971C38.089 18.5722 38.1542 18.6102 38.3008 18.8925C38.4419 19.1748 38.5125 19.2128 38.6753 19.0934C38.7676 19.0282 38.7568 18.9902 38.5179 18.5505C38.3768 18.2899 38.2356 18.0782 38.203 18.0836C38.165 18.089 37.8067 18.2682 37.405 18.4908Z" fill="#19404D"/>
<path d="M11.1346 19.4463C11.102 19.5385 11.0803 19.62 11.0857 19.6254C11.0966 19.6363 11.2975 19.7231 11.5363 19.8317C11.7752 19.9349 12.1335 20.0977 12.3344 20.19L12.7035 20.3529L12.7904 20.1846C12.8393 20.0977 12.8555 20 12.8284 19.9729C12.7633 19.9077 11.3409 19.2725 11.2595 19.2725C11.2269 19.2725 11.1672 19.3485 11.1346 19.4463Z" fill="#19404D"/>
<path d="M38.0564 19.7991C37.6547 19.9674 37.3181 20.1086 37.3072 20.114C37.3018 20.1194 37.3235 20.2008 37.3561 20.2931C37.4267 20.4994 37.4755 20.5049 37.8175 20.3583C38.0184 20.2714 38.0836 20.2606 38.1216 20.3148C38.2084 20.456 38.1596 20.5754 37.9207 20.7709C37.6601 20.9826 37.6384 21.0369 37.7361 21.2486L37.8013 21.3843L38.089 21.1618C38.2464 21.0423 38.393 20.9012 38.4093 20.8415C38.4364 20.76 38.4636 20.7492 38.545 20.7926C38.659 20.8523 38.925 20.8632 39.0608 20.8143C39.2073 20.7546 39.3213 20.4777 39.2779 20.266C39.2128 19.924 38.9956 19.4897 38.887 19.4951C38.8327 19.4951 38.4582 19.6362 38.0564 19.7991ZM38.8925 20.0651C38.963 20.2497 38.925 20.418 38.8056 20.4614C38.6373 20.5211 38.5559 20.4831 38.4582 20.2931C38.3767 20.1411 38.3821 20.1357 38.5559 20.0597C38.7893 19.9565 38.8545 19.962 38.8925 20.0651Z" fill="#19404D"/>
<path d="M10.8849 20.0163C10.6677 20.57 10.4777 21.1889 10.5103 21.2269C10.5375 21.2486 10.6135 21.2866 10.6786 21.3029C10.7818 21.3355 10.8089 21.3138 10.8632 21.1183C10.9012 20.9989 10.9446 20.9012 10.9718 20.9012C10.9935 20.9012 11.2975 21.0043 11.6449 21.1292C12.2584 21.3463 12.2856 21.3518 12.3561 21.2541C12.519 21.0315 12.4647 20.9772 11.7807 20.7383C11.4006 20.6026 11.1292 20.4777 11.1292 20.4343C11.1292 20.3963 11.1563 20.2986 11.1889 20.2117C11.2323 20.0868 11.2269 20.0488 11.1509 19.9946C11.0206 19.8968 10.9283 19.9077 10.8849 20.0163Z" fill="#19404D"/>
<path d="M38.6536 21.3192C38.2193 21.4495 37.861 21.5689 37.8556 21.5744C37.8502 21.5798 37.8665 21.6721 37.8936 21.7807L37.9479 21.9761L38.7948 21.7155C39.2617 21.5689 39.6526 21.4441 39.6634 21.4278C39.7068 21.3844 39.5657 21.0641 39.506 21.0695C39.468 21.0695 39.0879 21.1835 38.6536 21.3192Z" fill="#19404D"/>
<path d="M10.38 21.6232C10.2931 21.7372 10.2062 22.0521 10.2062 22.2693C10.2062 22.4321 10.2442 22.519 10.3637 22.6439C10.6351 22.9099 10.9609 22.8284 11.254 22.4104C11.5417 21.9978 11.8132 22.2801 11.5743 22.7416L11.4657 22.9533L11.596 23.013C11.7969 23.1053 11.8186 23.0945 11.9163 22.8284C12.1498 22.2204 11.9598 21.7644 11.4657 21.7698C11.2974 21.7698 11.1509 21.8784 10.9391 22.1607C10.6786 22.5136 10.4397 22.367 10.6134 21.9598C10.7166 21.7101 10.7166 21.7427 10.5645 21.645C10.4614 21.5744 10.4234 21.5744 10.38 21.6232Z" fill="#19404D"/>
<path d="M38.7079 22.0467C38.2302 22.2421 38.0402 22.7742 38.279 23.2682C38.4962 23.7188 39.1042 23.8491 39.6254 23.5559C39.9023 23.4039 40.0108 23.203 40.0108 22.8447C40.0108 22.3073 39.6797 21.987 39.1422 21.9924C38.9794 21.9924 38.7839 22.0195 38.7079 22.0467ZM39.5657 22.5299C39.7394 22.6927 39.7231 22.9262 39.5222 23.0945C39.1259 23.4256 38.4908 23.2953 38.4908 22.8827C38.4908 22.7687 38.7188 22.5136 38.8708 22.4593C39.0771 22.3833 39.4517 22.4213 39.5657 22.5299Z" fill="#19404D"/>
<path d="M9.97823 23.3116C9.95651 23.5233 9.94566 23.5179 10.7383 23.5939L11.1346 23.6319L10.5103 23.8762L9.89137 24.1259L9.85879 24.3377C9.83708 24.4571 9.84251 24.5711 9.86422 24.5928C9.91308 24.6363 11.558 24.8317 11.596 24.7991C11.6069 24.7828 11.634 24.7014 11.6503 24.6091L11.6829 24.4462L11.3083 24.4082C11.1074 24.392 10.8197 24.3594 10.6731 24.3377L10.4125 24.3051L11.026 24.0608C11.368 23.9305 11.6775 23.7948 11.7155 23.7676C11.748 23.7351 11.7806 23.6319 11.7806 23.5342C11.7806 23.3659 11.7643 23.3496 11.5798 23.3225C11.4169 23.2953 10.0542 23.127 10.0108 23.127C10.0054 23.127 9.98909 23.2085 9.97823 23.3116Z" fill="#19404D"/>
<path d="M39.2671 24.0174C38.811 24.0554 38.4256 24.0934 38.4093 24.1097C38.393 24.1259 38.3985 24.2237 38.4147 24.3214L38.4527 24.5005L38.8002 24.468C39.1314 24.4354 39.1422 24.4408 39.1422 24.5603C39.1422 24.7231 39.0065 24.8371 38.7242 24.924C38.4962 24.9891 38.4907 24.9946 38.4907 25.2171V25.4452L38.8165 25.3312C38.9956 25.266 39.1856 25.1737 39.2291 25.1249C39.3105 25.0489 39.3268 25.0489 39.4191 25.1411C39.6308 25.3529 40.0108 25.3203 40.1683 25.0706C40.2768 24.8914 40.2443 23.9251 40.1303 23.9468C40.1085 23.9522 39.7231 23.9848 39.2671 24.0174ZM39.9457 24.5548C39.9674 24.7394 39.8751 24.8643 39.7122 24.8643C39.5711 24.8643 39.4897 24.7828 39.4408 24.582C39.4082 24.4571 39.4191 24.4354 39.5602 24.4137C39.8588 24.3702 39.9294 24.392 39.9457 24.5548Z" fill="#19404D"/>
<path d="M9.82623 25.2931V25.5157H10.4723C10.8251 25.5157 11.2269 25.532 11.368 25.5483L11.6178 25.5863V25.3583V25.1357H11.14C10.874 25.1357 10.4723 25.1194 10.2443 25.1031L9.82623 25.0651V25.2931Z" fill="#19404D"/>
<path d="M37.1878 28.9522C37.1498 29.0662 37.1498 29.1314 37.1878 29.1531C37.2204 29.1694 37.4755 29.2454 37.7632 29.3159L38.2844 29.4408L37.6275 29.5982L36.9706 29.7611L36.9109 29.9783C36.8838 30.0977 36.8675 30.2063 36.8783 30.2226C36.9489 30.2877 38.5613 30.6786 38.5993 30.6406C38.621 30.6134 38.6536 30.532 38.6644 30.4614C38.6807 30.3366 38.6482 30.3203 38.1161 30.1791C37.8067 30.0923 37.5461 30.0163 37.5352 30.0054C37.5244 30 37.823 29.9186 38.1921 29.8371L38.8707 29.6797L38.925 29.4897C38.9847 29.2617 38.9739 29.2291 38.7784 29.1911C38.6916 29.1694 38.317 29.0716 37.937 28.9685L37.2475 28.7839L37.1878 28.9522Z" fill="#19404D"/>
<path d="M12.1064 29.2454C11.7643 29.3431 11.3897 29.4517 11.2703 29.4842C11.064 29.5385 11.064 29.5385 11.0966 29.7665C11.1834 30.2986 11.4929 30.7437 11.8403 30.836C12.4809 31.0098 13.0673 30.5592 13.0075 29.9403C12.9858 29.6743 12.8338 29.1585 12.7687 29.0934C12.747 29.0771 12.4484 29.1422 12.1064 29.2454ZM12.671 29.886C12.6764 30.0977 12.6492 30.1629 12.5298 30.266C12.3398 30.4289 11.9978 30.4886 11.7969 30.3909C11.6558 30.3257 11.4115 29.9403 11.4712 29.8806C11.5363 29.8154 12.5732 29.5494 12.6167 29.5928C12.6438 29.6145 12.6655 29.7503 12.671 29.886Z" fill="#19404D"/>
<path d="M12.4755 31.102C12.0304 31.2975 11.6721 31.4821 11.6721 31.5092C11.6721 31.5689 12.0521 32.4213 12.1064 32.481C12.1281 32.5027 12.2095 32.4973 12.2855 32.4593L12.4212 32.3995L12.2801 32.0684C12.1444 31.7535 12.1444 31.7427 12.2421 31.6721C12.4212 31.5364 12.519 31.5852 12.6493 31.8675C12.7578 32.0955 12.7958 32.1335 12.8881 32.1064C13.0836 32.0467 13.089 32.0032 12.9533 31.7047L12.8176 31.4115L12.9858 31.3409C13.0781 31.3029 13.1596 31.2758 13.1596 31.2812C13.165 31.2921 13.2301 31.4278 13.3007 31.5798C13.4364 31.8784 13.4907 31.9164 13.6482 31.7969C13.7405 31.7318 13.7296 31.6938 13.507 31.2378L13.2736 30.7437L12.4755 31.102Z" fill="#19404D"/>
<path d="M36.5364 31.0261C36.5092 31.1021 36.4549 31.2161 36.4278 31.2704C36.3789 31.3572 36.4604 31.4441 37.0087 31.9055C37.3616 32.1987 37.6927 32.4701 37.7416 32.5081C37.823 32.5733 37.8447 32.557 37.9262 32.405L38.0184 32.2258L37.823 32.0575L37.6276 31.8893L37.7361 31.6558L37.8393 31.4224L38.0782 31.4549C38.3062 31.4929 38.317 31.4875 38.3768 31.3192C38.4093 31.2215 38.4365 31.1292 38.4365 31.1075C38.4365 31.0858 38.127 31.0369 37.747 31.0043C37.3616 30.9663 36.949 30.9283 36.8241 30.9066C36.6124 30.8795 36.5907 30.8903 36.5364 31.0261ZM37.3887 31.3572C37.4973 31.3789 37.5027 31.3952 37.4484 31.5309C37.4104 31.6124 37.3778 31.6884 37.367 31.6992C37.3561 31.7155 37.025 31.4767 36.8404 31.3192C36.797 31.2812 37.1281 31.3029 37.3887 31.3572Z" fill="#19404D"/>
<path d="M36.1237 32.0195C35.9989 32.1064 35.8252 32.4158 35.7709 32.6656C35.7166 32.899 35.722 32.9641 35.8197 33.1813C35.8794 33.317 36.0152 33.4962 36.1346 33.583C36.3138 33.7188 36.3843 33.7405 36.7046 33.7405C37.0412 33.7405 37.0901 33.7242 37.2421 33.5776C37.4267 33.4039 37.6221 33.0673 37.6221 32.9316C37.6221 32.861 37.4701 32.7361 37.3887 32.7361C37.3724 32.7361 37.3072 32.8501 37.2367 32.9859C37.0792 33.3225 36.8458 33.4256 36.5526 33.3062C36.2758 33.1867 36.1617 33.0782 36.1237 32.8719C36.0912 32.6873 36.1509 32.519 36.3246 32.3235C36.4278 32.215 36.4278 32.2095 36.3029 32.0955C36.2377 32.0358 36.1563 31.9978 36.1237 32.0195Z" fill="#19404D"/>
<path d="M13.5396 32.7633C13.4093 32.8936 13.3984 32.9316 13.4202 33.3224C13.4364 33.6862 13.4256 33.7405 13.3387 33.7568C13.1976 33.7839 13.0401 33.6265 12.9696 33.3822C12.9098 33.1867 12.899 33.1813 12.747 33.2356C12.6113 33.2844 12.5895 33.3116 12.6221 33.4365C12.7796 34.0771 13.3822 34.3919 13.735 34.0119C13.8436 33.8925 13.8545 33.8436 13.8328 33.5016C13.8165 33.2953 13.8219 33.0944 13.8436 33.0619C13.9196 32.937 14.0879 33.0347 14.1965 33.2627C14.2888 33.469 14.3214 33.4907 14.4408 33.4636C14.6199 33.4256 14.6199 33.4202 14.5765 33.2247C14.5548 33.1324 14.4462 32.9587 14.3376 32.8393C14.1639 32.6601 14.0988 32.6276 13.9033 32.6276C13.7296 32.6276 13.6427 32.6601 13.5396 32.7633Z" fill="#19404D"/>
<path d="M35.19 33.5016L35.0705 33.6482L35.3257 33.8545C35.4723 33.9685 35.6894 34.1422 35.8197 34.2454C35.9446 34.3431 36.0749 34.4734 36.1075 34.5331C36.2215 34.7557 36.0043 35.0054 35.7546 34.9403C35.684 34.924 35.4234 34.7503 35.1737 34.5548C34.924 34.3648 34.7014 34.2019 34.6851 34.2019C34.6688 34.2019 34.6037 34.2725 34.5385 34.3594L34.4245 34.5168L34.8968 34.8697C35.4723 35.2932 35.5591 35.342 35.7763 35.342C36.3029 35.342 36.6775 34.6634 36.3898 34.2237C36.3192 34.1097 35.5483 33.4745 35.3691 33.3768C35.342 33.3605 35.2605 33.4148 35.19 33.5016Z" fill="#19404D"/>
<path d="M14.1857 34.2779C13.7296 34.4571 13.355 34.62 13.355 34.6363C13.355 34.6525 13.4093 34.734 13.4799 34.8154L13.6048 34.9728L13.8056 34.8751C13.9956 34.7828 14.0065 34.7828 14.1205 34.886C14.3322 35.076 14.3431 35.1629 14.2128 35.3963L14.0879 35.608L14.2291 35.7546L14.3702 35.8958L14.8968 35.1249L15.4234 34.3485L15.266 34.1585C15.1846 34.0499 15.0923 33.9576 15.0597 33.9522C15.0326 33.9468 14.6363 34.0934 14.1857 34.2779ZM14.8426 34.5168C14.7937 34.6037 14.7123 34.7231 14.6634 34.7937L14.5711 34.9131L14.4462 34.7774L14.316 34.6363L14.6091 34.5005C14.772 34.43 14.9077 34.3648 14.9186 34.3648C14.9294 34.3648 14.8968 34.4354 14.8426 34.5168Z" fill="#19404D"/>
<path d="M15.3529 35.418C15.0977 35.6895 14.8317 35.9826 14.7666 36.0641C14.6525 36.2106 14.6525 36.2215 14.7394 36.3192C14.7937 36.3789 14.8643 36.4278 14.8968 36.4278C14.9294 36.4278 15.1466 36.2269 15.3746 35.9826C15.684 35.6515 15.7818 35.5755 15.7437 35.684C15.7166 35.7709 15.6297 36.0858 15.5483 36.3844L15.4126 36.9327L15.57 37.0901L15.722 37.2476L16.3301 36.6015C16.6667 36.2432 16.9381 35.9283 16.9381 35.8958C16.9381 35.8686 16.8784 35.8035 16.8078 35.7546C16.6775 35.6732 16.6667 35.6786 16.2541 36.1184C16.0206 36.3627 15.8469 36.5364 15.8686 36.4984C15.8903 36.4658 15.9826 36.1618 16.0695 35.8198L16.2323 35.2117L16.0858 35.0597C16.0043 34.9783 15.912 34.9077 15.8849 34.9131C15.8523 34.9186 15.6135 35.1412 15.3529 35.418Z" fill="#19404D"/>
<path d="M33.7187 35.2226L33.6102 35.3746L34.2453 36.0097L34.8805 36.6449L35.2877 36.2378L35.6894 35.836L35.5591 35.6949L35.4288 35.5592L35.1683 35.8143L34.9077 36.0695L34.4028 35.57C34.1259 35.2931 33.887 35.0706 33.8653 35.0706C33.8436 35.0706 33.7785 35.1411 33.7187 35.2226Z" fill="#19404D"/>
<path d="M33.013 35.8578C32.823 36.0206 32.6438 36.1726 32.6113 36.2052C32.557 36.2595 33.6265 37.595 33.7242 37.595C33.7839 37.595 34.5765 36.9598 34.5819 36.911C34.5819 36.8892 34.5385 36.8187 34.4842 36.7535L34.3865 36.6341L34.1205 36.8567C33.9739 36.9815 33.8327 37.0793 33.811 37.0793C33.7947 37.0793 33.7242 37.0087 33.6645 36.9272L33.5559 36.7752L33.7947 36.5852C33.925 36.4821 34.0336 36.3898 34.0336 36.3735C34.0336 36.3572 33.9902 36.2921 33.9413 36.2215L33.8436 36.0912L33.6102 36.2866C33.4799 36.3952 33.3604 36.4821 33.3387 36.4821C33.3116 36.4821 33.2519 36.4332 33.1976 36.3735C33.0998 36.2649 33.0998 36.2595 33.3659 36.0261C33.6319 35.7926 33.6319 35.7872 33.5287 35.6732C33.469 35.6135 33.4093 35.5592 33.393 35.5592C33.3767 35.5646 33.203 35.6949 33.013 35.8578Z" fill="#19404D"/>
<path d="M17.0847 37.1716C16.7915 37.5733 16.558 37.9099 16.5689 37.9153C16.5798 37.9207 16.6503 37.9696 16.7318 38.0185L16.8784 38.1107L17.2367 37.595C17.4375 37.3127 17.6058 37.0793 17.6167 37.0793C17.6221 37.0793 17.5461 37.3507 17.443 37.6873C17.2584 38.2628 17.2584 38.2953 17.3507 38.3659C17.405 38.4039 17.481 38.4365 17.519 38.4365C17.557 38.4365 17.7958 38.2519 18.051 38.0293C18.3116 37.8067 18.5287 37.6221 18.5396 37.6221C18.5504 37.6221 18.4147 37.8719 18.2356 38.1759L17.9153 38.7351L18.0347 38.8274C18.1053 38.8816 18.1867 38.9251 18.2193 38.9251C18.2627 38.9251 19.1096 37.4701 19.1096 37.3887C19.1096 37.3778 19.0065 37.2964 18.887 37.215L18.6645 37.0684L18.4636 37.2476C18.355 37.3507 18.1487 37.5407 18.0021 37.6764C17.8121 37.8502 17.747 37.8882 17.7687 37.8122C17.7795 37.7524 17.861 37.4864 17.937 37.2204C18.0184 36.9544 18.0618 36.7155 18.0401 36.6992C18.013 36.6775 17.9098 36.6124 17.8067 36.5472L17.6113 36.4332L17.0847 37.1716Z" fill="#19404D"/>
<path d="M32.0738 36.6015C31.9598 36.6667 31.8675 36.7481 31.8675 36.7807C31.8675 36.8132 31.9381 37.0901 32.0195 37.3941L32.1769 37.9424L31.7481 37.5407C31.5092 37.3181 31.292 37.1335 31.2703 37.1335C31.1834 37.1335 30.836 37.3615 30.836 37.4158C30.836 37.481 31.5906 38.9142 31.6449 38.9468C31.6666 38.9631 31.7481 38.9305 31.8295 38.8816L31.9706 38.7839L31.6775 38.2519C31.5146 37.9533 31.3789 37.7036 31.3789 37.6873C31.3789 37.671 31.5852 37.861 31.8403 38.1053C32.2366 38.4853 32.3181 38.5396 32.4104 38.4908C32.4647 38.4636 32.5298 38.4148 32.5461 38.3822C32.5624 38.355 32.5027 38.0456 32.4158 37.6981C32.3289 37.3507 32.2747 37.0847 32.2964 37.1118C32.3235 37.139 32.4918 37.3887 32.6764 37.6656L33.013 38.1705L33.1758 38.051C33.3387 37.937 33.3387 37.937 33.241 37.7904C32.9153 37.2964 32.3344 36.4821 32.3072 36.4821C32.2909 36.4821 32.1824 36.5364 32.0738 36.6015Z" fill="#19404D"/>
<path d="M30.3311 37.5787C30.1628 37.6384 30.1031 37.8013 30.1466 38.1162C30.1628 38.2302 30.1683 38.3279 30.1574 38.3279C30.1466 38.3279 30.0217 38.2302 29.886 38.1107C29.6471 37.9044 29.6254 37.899 29.4897 37.9696C29.4082 38.0076 29.3051 38.051 29.2671 38.0673C29.2128 38.0836 29.3431 38.2084 29.6091 38.4039L30.0326 38.7133L29.9945 39.1314C29.9728 39.3594 29.9457 39.5928 29.9348 39.6417C29.9023 39.7611 29.9023 39.7611 30.152 39.658L30.3474 39.5765V39.2182V38.8599L30.6243 39.0825C30.7817 39.2074 30.9175 39.3051 30.9392 39.3051C30.9555 39.2997 31.0532 39.2562 31.1563 39.2019L31.3409 39.1042L30.9229 38.8111L30.5049 38.5179L30.5374 38.013C30.5537 37.7416 30.5537 37.5136 30.5266 37.519C30.5049 37.519 30.418 37.5461 30.3311 37.5787Z" fill="#19404D"/>
<path d="M19.2399 38.3116C18.9468 38.6645 18.6699 38.9902 18.6319 39.0445C18.5722 39.1205 18.5884 39.1422 18.7676 39.202C18.963 39.2671 18.9739 39.2617 19.1205 39.0879L19.2671 38.9088L19.4896 39.0065C19.7014 39.0988 19.7068 39.1151 19.7068 39.3648C19.7068 39.6037 19.7177 39.6254 19.8805 39.6797C19.9728 39.7123 20.0597 39.734 20.0705 39.7231C20.0814 39.7123 20.1302 39.2942 20.1845 38.7948L20.2823 37.8882L20.1465 37.8176C19.7991 37.6384 19.8154 37.633 19.2399 38.3116ZM19.8425 38.4582C19.7991 38.7839 19.7882 38.7948 19.5765 38.7025L19.4462 38.6428L19.6416 38.3822C19.7502 38.241 19.8479 38.1325 19.8588 38.1433C19.8697 38.1488 19.8642 38.2899 19.8425 38.4582Z" fill="#19404D"/>
<path d="M28.5179 38.279C28.1976 38.3822 28.0238 38.4636 28.0401 38.507C28.051 38.5396 28.165 38.9142 28.2898 39.3322C28.4147 39.7502 28.5233 40.1086 28.5341 40.1303C28.545 40.1466 28.7893 40.0923 29.0825 40.0054C29.3702 39.9185 29.6145 39.848 29.6253 39.848C29.6471 39.848 29.5819 39.5657 29.5548 39.5331C29.5493 39.5222 29.4082 39.5494 29.2453 39.5982C29.0825 39.6471 28.9196 39.6851 28.8924 39.6851C28.849 39.6851 28.7187 39.4137 28.7187 39.3268C28.7187 39.3159 28.8653 39.2725 29.039 39.2182C29.3593 39.1314 29.3593 39.1314 29.305 38.9739C29.2399 38.7893 29.2453 38.7893 28.9142 38.9033C28.6264 39.0011 28.5559 38.9685 28.5559 38.7296C28.5559 38.6373 28.6156 38.5993 28.8816 38.5287L29.2019 38.4365L29.1476 38.2736C29.115 38.1867 29.0716 38.1107 29.0553 38.1162C29.0336 38.1162 28.7947 38.1922 28.5179 38.279Z" fill="#19404D"/>
<path d="M20.6894 39.0065C20.5591 39.468 20.4614 39.8588 20.4723 39.8697C20.4831 39.8806 20.57 39.9131 20.6677 39.9457L20.836 40L20.9337 39.6525C20.9826 39.4625 21.0423 39.3051 21.0586 39.3051C21.0803 39.3051 21.1509 39.3431 21.216 39.392C21.3192 39.4625 21.3355 39.5222 21.3355 39.7991C21.3355 40.0977 21.3463 40.1249 21.4766 40.1737C21.7589 40.2823 21.7806 40.2606 21.7589 39.8588C21.748 39.658 21.7155 39.4517 21.6938 39.3974C21.6612 39.3322 21.672 39.3051 21.7263 39.3051C21.8675 39.3051 22.0521 39.0554 22.0575 38.8491C22.0684 38.5179 21.7535 38.3007 21.1183 38.1922L20.9283 38.1596L20.6894 39.0065ZM21.4983 38.6265C21.7915 38.7785 21.6395 39.1314 21.3192 39.0662C21.2269 39.0499 21.1454 39.0282 21.14 39.0174C21.102 38.9848 21.2432 38.545 21.292 38.545C21.3192 38.545 21.4115 38.583 21.4983 38.6265Z" fill="#19404D"/>
<path d="M23.9413 38.4745L23.8219 38.6265L23.9956 38.6428C24.1205 38.6536 24.2074 38.6265 24.3051 38.5396C24.4245 38.4202 24.4299 38.4093 24.3376 38.3767C24.1531 38.3007 24.0608 38.3279 23.9413 38.4745Z" fill="#19404D"/>
<path d="M27.1009 38.6102C26.5526 38.7188 26.5418 38.7242 26.5581 38.8654C26.5743 38.9956 26.5906 39.0065 26.8349 38.9956C27.0358 38.9902 27.0901 39.0065 27.0901 39.0717C27.0901 39.1205 27.1444 39.4354 27.2041 39.7774C27.3181 40.3746 27.3235 40.3909 27.4647 40.3909C27.7307 40.3909 27.7361 40.3583 27.6058 39.6308C27.5353 39.2562 27.4864 38.9359 27.5027 38.9196C27.5135 38.8979 27.6221 38.8708 27.747 38.8491C27.9153 38.8219 27.9641 38.7948 27.937 38.7296C27.9207 38.6808 27.9044 38.6102 27.9044 38.5668C27.9044 38.469 27.8013 38.4745 27.1009 38.6102Z" fill="#19404D"/>
<path d="M22.2366 38.6645C22.1878 38.8599 22.1878 38.8599 22.4538 38.9033C22.671 38.9359 22.6981 38.9522 22.6764 39.0554C22.6112 39.3214 22.4592 40.342 22.4809 40.3583C22.4918 40.3691 22.5787 40.3963 22.671 40.4126C22.8718 40.456 22.8555 40.4994 22.9967 39.6145L23.089 39.0282L23.3387 39.0445C23.583 39.0608 23.5884 39.0554 23.5884 38.8979V38.7405L23.0456 38.6428C22.3181 38.5179 22.2801 38.5233 22.2366 38.6645Z" fill="#19404D"/>
<path d="M23.7622 39.1531C23.7405 39.3702 23.7079 39.7774 23.6916 40.0489L23.6536 40.5537H23.8491C24.0282 40.5537 24.0445 40.5429 24.0716 40.3474C24.0879 40.2389 24.1151 39.924 24.1314 39.658C24.1477 39.3865 24.1748 39.0771 24.1911 38.9631L24.2237 38.7622H24.0065H23.7948L23.7622 39.1531Z" fill="#19404D"/>
<path d="M25.722 38.8002C25.6352 38.8219 25.6243 38.8979 25.6243 39.3757V39.9294L25.3094 39.3865L24.9946 38.8436L24.7394 38.8274L24.4843 38.8111V39.3757C24.4843 39.6851 24.5005 40.0923 24.5168 40.2769C24.5548 40.6026 24.5548 40.608 24.7231 40.608H24.8914L24.8751 39.9674C24.8643 39.468 24.8751 39.354 24.924 39.4408C24.9566 39.5005 25.1194 39.7883 25.2823 40.076C25.5809 40.608 25.5809 40.608 25.7926 40.608H26.0043L25.9935 39.7014C25.9772 38.7405 25.9718 38.7296 25.722 38.8002Z" fill="#19404D"/>
</svg>
