<svg width="18" height="18" viewBox="0 0 18 18" fill="none" xmlns="http://www.w3.org/2000/svg">
<path d="M10.6838 5.61893H2.81721C2.66818 5.61893 2.52526 5.55973 2.41989 5.45436C2.31451 5.34898 2.25531 5.20606 2.25531 5.05704V2.80945C2.25531 2.66043 2.31451 2.5175 2.41989 2.41213C2.52526 2.30675 2.66818 2.24755 2.81721 2.24755H10.6838C10.8328 2.24755 10.9757 2.30675 11.0811 2.41213C11.1865 2.5175 11.2457 2.66043 11.2457 2.80945V5.05704C11.2457 5.20606 11.1865 5.34898 11.0811 5.45436C10.9757 5.55973 10.8328 5.61893 10.6838 5.61893ZM3.3791 4.49514H10.1219V3.33763H3.3791V4.49514Z" fill="black"/>
<path d="M10.6838 6.78772H2.81721C2.66818 6.78772 2.52526 6.84692 2.41989 6.9523C2.31451 7.05767 2.25531 7.20059 2.25531 7.34962V9.55225C2.25531 9.70128 2.31451 9.8442 2.41989 9.94957C2.52526 10.0549 2.66818 10.1141 2.81721 10.1141H9.20035L11.2457 8.03513V7.34962C11.2457 7.20059 11.1865 7.05767 11.0811 6.9523C10.9757 6.84692 10.8328 6.78772 10.6838 6.78772ZM10.1219 8.99035H3.3791V7.86656H10.1219V8.99035Z" fill="black"/>
<path d="M5.09841 16.5816V16.5479L5.27822 15.7668H1.13142V1.12379H12.3694V6.88323L13.4931 5.82125V0.561897C13.4931 0.412872 13.4339 0.269952 13.3286 0.164576C13.2232 0.0591996 13.0803 0 12.9313 0H0.569526C0.420502 0 0.277581 0.0591996 0.172205 0.164576C0.066829 0.269952 0.00762939 0.412872 0.00762939 0.561897V16.295C0.00762939 16.444 0.066829 16.5869 0.172205 16.6923C0.277581 16.7977 0.420502 16.8569 0.569526 16.8569H5.0647C5.06933 16.7644 5.0806 16.6724 5.09841 16.5816Z" fill="black"/>
<path d="M2.25531 14.0136C2.25531 14.1627 2.31451 14.3056 2.41989 14.411C2.52526 14.5163 2.66818 14.5755 2.81721 14.5755H5.53679L5.70536 13.8451L5.7784 13.536V13.5079H3.3791V12.3617H6.94153L8.06532 11.2379H2.81721C2.66818 11.2379 2.52526 11.2971 2.41989 11.4024C2.31451 11.5078 2.25531 11.6507 2.25531 11.7998V14.0136Z" fill="black"/>
<path d="M17.7018 8.243L15.8082 6.34941C15.7242 6.26514 15.6243 6.19829 15.5144 6.15267C15.4045 6.10705 15.2866 6.08357 15.1676 6.08357C15.0486 6.08357 14.9308 6.10705 14.8209 6.15267C14.7109 6.19829 14.6111 6.26514 14.5271 6.34941L6.82347 14.098L6.18852 16.8007C6.16475 16.9173 6.16422 17.0374 6.18695 17.1542C6.20968 17.271 6.25524 17.3822 6.32101 17.4814C6.38677 17.5806 6.47146 17.6658 6.57021 17.7322C6.66897 17.7986 6.77985 17.8448 6.89651 17.8683C6.95443 17.8741 7.01278 17.8741 7.0707 17.8683C7.13955 17.8795 7.20976 17.8795 7.2786 17.8683L10.0038 17.2671L17.7018 9.55222C17.7859 9.46867 17.8526 9.3693 17.8982 9.25985C17.9437 9.1504 17.9672 9.03302 17.9672 8.91447C17.9672 8.79592 17.9437 8.67854 17.8982 8.56909C17.8526 8.45964 17.7859 8.36027 17.7018 8.27672V8.243ZM9.43067 16.2444L7.37412 16.6995L7.87421 14.6599L13.6505 8.82176L15.2351 10.4063L9.43067 16.2444ZM15.87 9.77136L14.2855 8.18681L15.1789 7.30464L16.7747 8.90042L15.87 9.77136Z" fill="black"/>
</svg>
