<svg width="18" height="18" viewBox="0 0 18 18" fill="none" xmlns="http://www.w3.org/2000/svg">
<path d="M9 0C4.03741 0 0 4.03741 0 9C0 13.9626 4.03741 18 9 18C13.9626 18 18 13.9626 18 9C18 4.03741 13.9626 0 9 0ZM9 16.5752C4.82295 16.5752 1.42481 13.1768 1.42481 9C1.42481 4.82319 4.82295 1.42481 9 1.42481C13.1768 1.42481 16.5752 4.82344 16.5752 9.00025C16.5752 13.1771 13.1768 16.5752 9 16.5752Z" fill="#29343E"/>
<path d="M8.99993 10.597C6.46879 10.597 4.10052 11.8663 2.33185 14.1707L3.46219 15.0379C4.95514 13.0931 6.92185 12.0219 8.99993 12.0219C11.078 12.0219 13.0447 13.0931 14.5374 15.0379L15.6678 14.1707C13.8991 11.8663 11.5311 10.597 8.99993 10.597Z" fill="#29343E"/>
<path d="M9.00007 3.22961C6.95739 3.22961 5.29559 4.9021 5.29559 6.95783C5.29559 9.01356 6.95739 10.6861 9.00007 10.6861C11.0427 10.6861 12.7045 9.01359 12.7045 6.95786C12.7045 4.90214 11.0427 3.22961 9.00007 3.22961ZM9.00007 9.26127C7.74317 9.26127 6.7204 8.22806 6.7204 6.95783C6.7204 5.6876 7.74317 4.65439 9.00007 4.65439C10.257 4.65439 11.2797 5.68784 11.2797 6.95783C11.2797 8.22781 10.257 9.26127 9.00007 9.26127Z" fill="#29343E"/>
</svg>
